<svg xmlns="http://www.w3.org/2000/svg" viewBox="0 0 1000 1000">
<path fill="currentColor" d="M512.095,308.192c-99.422-5.214-177.007,63.775-194.116,171.753
	c-14.168,89.419,10.952,198.378,32.438,203.862
	c9.113,2.326,31.044-14.448,46.999-29.494c3-2.829,7.536-3.305,11.053-1.154
	c24.872,15.209,53.032,26.638,84.077,28.266
	c102.069,5.352,192.52-74.531,197.866-176.608
	C695.759,402.741,614.163,313.544,512.095,308.192z M345.605,826.578
	c-3.849-2.725-9.153-1.986-12.379,1.455
	c-43.12,45.99-153.474,78.25-158.529,15.48c0-49.18-11.046-90.623-23.208-136.252
	c-14.895-55.885-31.465-118.049-31.465-208.398
	c0-215.448,176.694-377.475,386.194-377.475S879.976,291.325,879.976,500.955
	S710.49,876.337,508.201,876.337C436.434,876.337,401.607,866.228,345.605,826.578z"/>
</svg>
